<svg width="168.22" height="20.078" version="1.1" xmlns="http://www.w3.org/2000/svg" xmlns:cc="http://creativecommons.org/ns#" xmlns:dc="http://purl.org/dc/elements/1.1/" xmlns:rdf="http://www.w3.org/1999/02/22-rdf-syntax-ns#">
 <metadata>
  <rdf:RDF>
   <cc:Work rdf:about="">
    <dc:format>image/svg+xml</dc:format>
    <dc:type rdf:resource="http://purl.org/dc/dcmitype/StillImage"/>
    <dc:title/>
   </cc:Work>
  </rdf:RDF>
 </metadata>
 <style/>
 <defs>
  <linearGradient id="linearGradient891" x1="170.83" x2="170.83" y1="-5.6998" y2="-16.76" gradientTransform="translate(0,20)" gradientUnits="userSpaceOnUse">
   <stop stop-color="#480900" stop-opacity=".4549" offset="0"/>
   <stop stop-color="#d2d2d2" stop-opacity="0" offset="1"/>
  </linearGradient>
  <filter id="filter923" x="-.0021966" y="-.018085" width="1.0044" height="1.0362" color-interpolation-filters="sRGB">
   <feGaussianBlur stdDeviation="0.082526871"/>
  </filter>
  <filter id="filter927" x="-.0025127" y="-.018605" width="1.005" height="1.0372" color-interpolation-filters="sRGB">
   <feGaussianBlur stdDeviation="0.082526871"/>
  </filter>
 </defs>
 <clipPath id="a">
  <rect width="102" height="20" rx="3" fill="#fff"/>
 </clipPath>
 <g transform="translate(0,4e-4)">
  <path d="m164.84 0h-80.56v20h80.56c1.8715 0 3.3782-1.5067 3.3782-3.3782v-13.244c0-1.8715-1.5067-3.3782-3.3782-3.3782z" fill="#f60" style="paint-order:stroke fill markers"/>
  <path d="m3.3782 0h84.558v20h-84.558c-1.8715 0-3.3782-1.5067-3.3782-3.3782v-13.244c0-1.8715 1.5067-3.3782 3.3782-3.3782z" fill="#4d4d4d" style="paint-order:stroke fill markers"/>
  <rect x="4.602e-15" width="168.15" height="20.078" ry="3.3782" fill="url(#linearGradient891)" style="paint-order:stroke fill markers"/>
  <g transform="translate(0 .81938)" fill="#010101" fill-opacity=".66791" filter="url(#filter927)" shape-rendering="auto" stroke-width=".1" aria-label="ansible-galaxy">
   <path d="m10.162 11.088c-0.79853 0-1.3518 0.09131-1.6597 0.27393-0.30794 0.18262-0.46191 0.49414-0.46191 0.93457 0 0.35091 0.11458 0.63021 0.34375 0.83789 0.23275 0.2041 0.54785 0.30615 0.94531 0.30615 0.54785 0 0.98649-0.19336 1.3159-0.58008 0.33301-0.3903 0.49951-0.9077 0.49951-1.5522v-0.22022zm1.9712-0.4082v3.4321h-0.98828v-0.91309c-0.22559 0.36523-0.50667 0.63558-0.84326 0.81104-0.33659 0.17187-0.74839 0.25781-1.2354 0.25781-0.61589 0-1.1065-0.17187-1.4717-0.51562-0.36165-0.34733-0.54248-0.81103-0.54248-1.3911 0-0.67673 0.22559-1.187 0.67676-1.5308 0.45475-0.34375 1.1315-0.51562 2.0303-0.51562h1.3857v-0.09668c0-0.45475-0.15039-0.80565-0.45117-1.0527-0.2972-0.25065-0.71613-0.37598-1.2568-0.37598-0.34375 0-0.67855 0.04118-1.0044 0.12354-0.32585 0.08236-0.63916 0.2059-0.93994 0.37061v-0.91309c0.36165-0.13965 0.71255-0.24349 1.0527-0.31152 0.34017-0.071613 0.67138-0.10742 0.99365-0.10742 0.87013 0 1.52 0.22559 1.9497 0.67676s0.64451 1.1351 0.64453 2.0518z" color="#000000" color-rendering="auto" dominant-baseline="auto" image-rendering="auto" solid-color="#000000" stop-color="#000000" style="font-feature-settings:normal;font-variant-alternates:normal;font-variant-caps:normal;font-variant-east-asian:normal;font-variant-ligatures:normal;font-variant-numeric:normal;font-variant-position:normal;font-variation-settings:normal;inline-size:0;isolation:auto;mix-blend-mode:normal;shape-margin:0;shape-padding:0;text-decoration-color:#000000;text-decoration-line:none;text-decoration-style:solid;text-indent:0;text-orientation:mixed;text-transform:none;white-space:normal"/>
   <path d="m19.169 10.481v3.6309h-0.98828v-3.5986c0-0.56933-0.111-0.99543-0.33301-1.2783s-0.55501-0.42431-0.99902-0.42432c-0.53353 0-0.95426 0.17008-1.2622 0.51025s-0.46191 0.80387-0.46191 1.3911v3.3999h-0.99365v-6.0156h0.99365v0.93457c0.23633-0.36165 0.51383-0.632 0.83252-0.81104 0.32227-0.17903 0.69287-0.26855 1.1118-0.26855 0.69107 0 1.2139 0.21484 1.5684 0.64453 0.35449 0.42611 0.53174 1.0545 0.53174 1.8853z" color="#000000" color-rendering="auto" dominant-baseline="auto" image-rendering="auto" solid-color="#000000" stop-color="#000000" style="font-feature-settings:normal;font-variant-alternates:normal;font-variant-caps:normal;font-variant-east-asian:normal;font-variant-ligatures:normal;font-variant-numeric:normal;font-variant-position:normal;font-variation-settings:normal;inline-size:0;isolation:auto;mix-blend-mode:normal;shape-margin:0;shape-padding:0;text-decoration-color:#000000;text-decoration-line:none;text-decoration-style:solid;text-indent:0;text-orientation:mixed;text-transform:none;white-space:normal"/>
   <path d="m24.975 8.2737v0.93457c-0.27929-0.14323-0.56933-0.25065-0.87012-0.32227s-0.61231-0.10743-0.93457-0.10742c-0.49056 0-0.85936 0.075197-1.1064 0.22559-0.24349 0.15039-0.36523 0.37598-0.36523 0.67676 0 0.22917 0.08773 0.40999 0.26318 0.54248 0.17545 0.12891 0.52815 0.25244 1.0581 0.3706l0.33838 0.0752c0.7018 0.15039 1.1995 0.36345 1.4932 0.63916 0.2972 0.27213 0.4458 0.65347 0.4458 1.144 0 0.55859-0.22201 1.0008-0.66602 1.3267-0.44043 0.32585-1.0474 0.48877-1.8208 0.48877-0.32227 0-0.65887-0.03223-1.0098-0.09668-0.34733-0.06087-0.71437-0.15397-1.1011-0.2793v-1.0205c0.36523 0.18978 0.7251 0.33301 1.0796 0.42969 0.35449 0.0931 0.70539 0.13965 1.0527 0.13965 0.46549 0 0.82356-0.07878 1.0742-0.23633 0.25065-0.16113 0.37598-0.38672 0.37598-0.67676 0-0.26855-0.09131-0.47445-0.27393-0.61768-0.17903-0.14323-0.5747-0.28108-1.187-0.41357l-0.34375-0.08057c-0.61231-0.12891-1.0545-0.32585-1.3267-0.59082-0.27213-0.26855-0.4082-0.63559-0.4082-1.1011 0-0.56575 0.20052-1.0026 0.60156-1.3105 0.40104-0.30794 0.97037-0.46191 1.708-0.46191 0.36523 0 0.70897 0.026855 1.0312 0.080566 0.32227 0.053711 0.61947 0.13428 0.8916 0.2417z" color="#000000" color-rendering="auto" dominant-baseline="auto" image-rendering="auto" solid-color="#000000" stop-color="#000000" style="font-feature-settings:normal;font-variant-alternates:normal;font-variant-caps:normal;font-variant-east-asian:normal;font-variant-ligatures:normal;font-variant-numeric:normal;font-variant-position:normal;font-variation-settings:normal;inline-size:0;isolation:auto;mix-blend-mode:normal;shape-margin:0;shape-padding:0;text-decoration-color:#000000;text-decoration-line:none;text-decoration-style:solid;text-indent:0;text-orientation:mixed;text-transform:none;white-space:normal"/>
   <path d="m26.871 8.0965h0.98828v6.0156h-0.98828zm0-2.3418h0.98828v1.2515h-0.98828z" color="#000000" color-rendering="auto" dominant-baseline="auto" image-rendering="auto" solid-color="#000000" stop-color="#000000" style="font-feature-settings:normal;font-variant-alternates:normal;font-variant-caps:normal;font-variant-east-asian:normal;font-variant-ligatures:normal;font-variant-numeric:normal;font-variant-position:normal;font-variation-settings:normal;inline-size:0;isolation:auto;mix-blend-mode:normal;shape-margin:0;shape-padding:0;text-decoration-color:#000000;text-decoration-line:none;text-decoration-style:solid;text-indent:0;text-orientation:mixed;text-transform:none;white-space:normal"/>
   <path d="m34.246 11.11c0-0.72687-0.15039-1.2962-0.45117-1.708-0.2972-0.41537-0.7072-0.62305-1.23-0.62305-0.52279 0-0.93459 0.20768-1.2354 0.62305-0.2972 0.41179-0.4458 0.98112-0.4458 1.708s0.1486 1.298 0.4458 1.7134c0.30078 0.41179 0.71258 0.61768 1.2354 0.61768 0.52279 0 0.93279-0.20589 1.23-0.61768 0.30078-0.41537 0.45117-0.9865 0.45117-1.7134zm-3.3623-2.1001c0.20768-0.35807 0.46907-0.62305 0.78418-0.79492 0.31869-0.17545 0.69825-0.26318 1.1387-0.26318 0.73047 0 1.3231 0.29004 1.7778 0.87012 0.45833 0.58008 0.6875 1.3428 0.6875 2.2881 0 0.94533-0.22917 1.708-0.6875 2.2881-0.45475 0.58008-1.0474 0.87012-1.7778 0.87012-0.44043 0-0.81999-0.08594-1.1387-0.25781-0.31511-0.17545-0.5765-0.44222-0.78418-0.80029v0.90234h-0.99365v-8.3574h0.99365z" color="#000000" color-rendering="auto" dominant-baseline="auto" image-rendering="auto" solid-color="#000000" stop-color="#000000" style="font-feature-settings:normal;font-variant-alternates:normal;font-variant-caps:normal;font-variant-east-asian:normal;font-variant-ligatures:normal;font-variant-numeric:normal;font-variant-position:normal;font-variation-settings:normal;inline-size:0;isolation:auto;mix-blend-mode:normal;shape-margin:0;shape-padding:0;text-decoration-color:#000000;text-decoration-line:none;text-decoration-style:solid;text-indent:0;text-orientation:mixed;text-transform:none;white-space:normal"/>
   <path d="m36.91 5.7547h0.98828v8.3574h-0.98828z" color="#000000" color-rendering="auto" dominant-baseline="auto" image-rendering="auto" solid-color="#000000" stop-color="#000000" style="font-feature-settings:normal;font-variant-alternates:normal;font-variant-caps:normal;font-variant-east-asian:normal;font-variant-ligatures:normal;font-variant-numeric:normal;font-variant-position:normal;font-variation-settings:normal;inline-size:0;isolation:auto;mix-blend-mode:normal;shape-margin:0;shape-padding:0;text-decoration-color:#000000;text-decoration-line:none;text-decoration-style:solid;text-indent:0;text-orientation:mixed;text-transform:none;white-space:normal"/>
   <path d="m45.111 10.857v0.4834h-4.5439c0.04297 0.68033 0.24707 1.1995 0.6123 1.5576 0.36881 0.35449 0.88085 0.53174 1.5361 0.53174 0.37956 0 0.74659-0.04655 1.1011-0.13965 0.35807-0.0931 0.71257-0.23275 1.0635-0.41894v0.93457c-0.35449 0.15039-0.71793 0.26498-1.0903 0.34375-0.37239 0.07877-0.75016 0.11816-1.1333 0.11816-0.95967 0-1.7206-0.2793-2.2827-0.83789-0.55859-0.55859-0.83789-1.3141-0.83789-2.2666 0-0.98473 0.26497-1.7653 0.79492-2.3418 0.53353-0.58008 1.2515-0.87012 2.1538-0.87012 0.80927 0 1.4484 0.26139 1.9175 0.78418 0.47265 0.51921 0.70898 1.2264 0.70898 2.1216zm-0.98828-0.29004c-0.0072-0.54069-0.15934-0.97216-0.45654-1.2944-0.29362-0.32227-0.68392-0.4834-1.1709-0.4834-0.55143 0-0.99367 0.15576-1.3267 0.46729-0.32943 0.31153-0.51921 0.75016-0.56934 1.3159z" color="#000000" color-rendering="auto" dominant-baseline="auto" image-rendering="auto" solid-color="#000000" stop-color="#000000" style="font-feature-settings:normal;font-variant-alternates:normal;font-variant-caps:normal;font-variant-east-asian:normal;font-variant-ligatures:normal;font-variant-numeric:normal;font-variant-position:normal;font-variation-settings:normal;inline-size:0;isolation:auto;mix-blend-mode:normal;shape-margin:0;shape-padding:0;text-decoration-color:#000000;text-decoration-line:none;text-decoration-style:solid;text-indent:0;text-orientation:mixed;text-transform:none;white-space:normal"/>
   <path d="m46.234 10.659h2.895v0.88086h-2.895z" color="#000000" color-rendering="auto" dominant-baseline="auto" image-rendering="auto" solid-color="#000000" stop-color="#000000" style="font-feature-settings:normal;font-variant-alternates:normal;font-variant-caps:normal;font-variant-east-asian:normal;font-variant-ligatures:normal;font-variant-numeric:normal;font-variant-position:normal;font-variation-settings:normal;inline-size:0;isolation:auto;mix-blend-mode:normal;shape-margin:0;shape-padding:0;text-decoration-color:#000000;text-decoration-line:none;text-decoration-style:solid;text-indent:0;text-orientation:mixed;text-transform:none;white-space:normal"/>
   <path d="m54.661 11.034c0-0.71613-0.1486-1.2711-0.4458-1.665-0.29362-0.39388-0.70719-0.59082-1.2407-0.59082-0.52995 0-0.94351 0.19694-1.2407 0.59082-0.29362 0.39388-0.44043 0.94888-0.44043 1.665 0 0.71253 0.14681 1.2658 0.44043 1.6597 0.2972 0.39388 0.71077 0.59082 1.2407 0.59082 0.53353 0 0.94709-0.19694 1.2407-0.59082 0.2972-0.39388 0.4458-0.94711 0.4458-1.6597zm0.98828 2.3311c0 1.0241-0.22738 1.785-0.68213 2.2827-0.45475 0.5013-1.1512 0.75195-2.0894 0.75195-0.34733 0-0.67497-0.02686-0.98291-0.08057-0.30794-0.05013-0.60693-0.12891-0.89697-0.23633v-0.96143c0.29004 0.15755 0.5765 0.27393 0.85938 0.34912 0.28288 0.07519 0.57113 0.11279 0.86475 0.11279 0.64811 0 1.1333-0.17008 1.4556-0.51025 0.32227-0.33659 0.4834-0.84685 0.4834-1.5308v-0.48877c-0.2041 0.35449-0.46549 0.61947-0.78418 0.79492s-0.70002 0.26318-1.144 0.26318c-0.7376 0-1.332-0.28109-1.7832-0.84326-0.45117-0.56217-0.67676-1.307-0.67676-2.2344 0-0.931 0.22559-1.6776 0.67676-2.2397 0.45117-0.56217 1.0456-0.84326 1.7832-0.84326 0.44401 0 0.82535 0.087727 1.144 0.26318 0.31869 0.17545 0.58008 0.44043 0.78418 0.79492v-0.91309h0.98828z" color="#000000" color-rendering="auto" dominant-baseline="auto" image-rendering="auto" solid-color="#000000" stop-color="#000000" style="font-feature-settings:normal;font-variant-alternates:normal;font-variant-caps:normal;font-variant-east-asian:normal;font-variant-ligatures:normal;font-variant-numeric:normal;font-variant-position:normal;font-variation-settings:normal;inline-size:0;isolation:auto;mix-blend-mode:normal;shape-margin:0;shape-padding:0;text-decoration-color:#000000;text-decoration-line:none;text-decoration-style:solid;text-indent:0;text-orientation:mixed;text-transform:none;white-space:normal"/>
   <path d="m60.419 11.088c-0.79853 0-1.3518 0.09131-1.6597 0.27393s-0.4619 0.49414-0.46191 0.93457c0 0.35091 0.11458 0.63021 0.34375 0.83789 0.23275 0.2041 0.54785 0.30615 0.94531 0.30615 0.54785 0 0.98649-0.19336 1.3159-0.58008 0.33301-0.3903 0.49951-0.9077 0.49951-1.5522v-0.22022zm1.9712-0.4082v3.4321h-0.98828v-0.91309c-0.22559 0.36523-0.50667 0.63558-0.84326 0.81104-0.33659 0.17187-0.74839 0.25781-1.2354 0.25781-0.61589 0-1.1065-0.17187-1.4717-0.51562-0.36165-0.34733-0.54248-0.81103-0.54248-1.3911 0-0.67673 0.22559-1.187 0.67676-1.5308 0.45475-0.34375 1.1315-0.51562 2.0303-0.51562h1.3857v-0.09668c0-0.45475-0.15039-0.80565-0.45117-1.0527-0.2972-0.25065-0.71613-0.37598-1.2568-0.37598-0.34375 0-0.67855 0.04118-1.0044 0.12354-0.32585 0.08236-0.63916 0.2059-0.93994 0.37061v-0.91308c0.36165-0.13965 0.71255-0.24349 1.0527-0.31152 0.34017-0.071613 0.67138-0.10742 0.99365-0.10742 0.87013 0 1.52 0.22559 1.9497 0.67676s0.64451 1.1351 0.64453 2.0518z" color="#000000" color-rendering="auto" dominant-baseline="auto" image-rendering="auto" solid-color="#000000" stop-color="#000000" style="font-feature-settings:normal;font-variant-alternates:normal;font-variant-caps:normal;font-variant-east-asian:normal;font-variant-ligatures:normal;font-variant-numeric:normal;font-variant-position:normal;font-variation-settings:normal;inline-size:0;isolation:auto;mix-blend-mode:normal;shape-margin:0;shape-padding:0;text-decoration-color:#000000;text-decoration-line:none;text-decoration-style:solid;text-indent:0;text-orientation:mixed;text-transform:none;white-space:normal"/>
   <path d="m64.426 5.7547h0.98828v8.3574h-0.98828z" color="#000000" color-rendering="auto" dominant-baseline="auto" image-rendering="auto" solid-color="#000000" stop-color="#000000" style="font-feature-settings:normal;font-variant-alternates:normal;font-variant-caps:normal;font-variant-east-asian:normal;font-variant-ligatures:normal;font-variant-numeric:normal;font-variant-position:normal;font-variation-settings:normal;inline-size:0;isolation:auto;mix-blend-mode:normal;shape-margin:0;shape-padding:0;text-decoration-color:#000000;text-decoration-line:none;text-decoration-style:solid;text-indent:0;text-orientation:mixed;text-transform:none;white-space:normal"/>
   <path d="m70.216 11.088c-0.79853 0-1.3518 0.09131-1.6597 0.27393s-0.4619 0.49414-0.46191 0.93457c0 0.35091 0.11458 0.63021 0.34375 0.83789 0.23275 0.2041 0.54785 0.30615 0.94531 0.30615 0.54785 0 0.98649-0.19336 1.3159-0.58008 0.33301-0.3903 0.49951-0.9077 0.49951-1.5522v-0.22022zm1.9712-0.4082v3.4321h-0.98828v-0.91309c-0.22559 0.36523-0.50667 0.63558-0.84326 0.81104-0.33659 0.17187-0.74839 0.25781-1.2354 0.25781-0.61589 0-1.1065-0.17187-1.4717-0.51562-0.36165-0.34733-0.54248-0.81103-0.54248-1.3911 0-0.67673 0.22559-1.187 0.67676-1.5308 0.45475-0.34375 1.1315-0.51562 2.0303-0.51562h1.3857v-0.09668c0-0.45475-0.15039-0.80565-0.45117-1.0527-0.2972-0.25065-0.71613-0.37598-1.2568-0.37598-0.34375 0-0.67855 0.04118-1.0044 0.12354-0.32585 0.08236-0.63916 0.2059-0.93994 0.37061v-0.91308c0.36165-0.13965 0.71255-0.24349 1.0527-0.31152 0.34017-0.071613 0.67138-0.10742 0.99365-0.10742 0.87013 0 1.52 0.22559 1.9497 0.67676s0.64451 1.1351 0.64453 2.0518z" color="#000000" color-rendering="auto" dominant-baseline="auto" image-rendering="auto" solid-color="#000000" stop-color="#000000" style="font-feature-settings:normal;font-variant-alternates:normal;font-variant-caps:normal;font-variant-east-asian:normal;font-variant-ligatures:normal;font-variant-numeric:normal;font-variant-position:normal;font-variation-settings:normal;inline-size:0;isolation:auto;mix-blend-mode:normal;shape-margin:0;shape-padding:0;text-decoration-color:#000000;text-decoration-line:none;text-decoration-style:solid;text-indent:0;text-orientation:mixed;text-transform:none;white-space:normal"/>
   <path d="m79.223 8.0965-2.1753 2.9272 2.2881 3.0884h-1.1655l-1.751-2.3633-1.751 2.3633h-1.1655l2.3364-3.1475-2.1377-2.8682h1.1655l1.5952 2.1431 1.5952-2.1431z" color="#000000" color-rendering="auto" dominant-baseline="auto" image-rendering="auto" solid-color="#000000" stop-color="#000000" style="font-feature-settings:normal;font-variant-alternates:normal;font-variant-caps:normal;font-variant-east-asian:normal;font-variant-ligatures:normal;font-variant-numeric:normal;font-variant-position:normal;font-variation-settings:normal;inline-size:0;isolation:auto;mix-blend-mode:normal;shape-margin:0;shape-padding:0;text-decoration-color:#000000;text-decoration-line:none;text-decoration-style:solid;text-indent:0;text-orientation:mixed;text-transform:none;white-space:normal"/>
   <path d="m83.235 14.671c-0.27929 0.71613-0.55143 1.1834-0.81641 1.4019s-0.61948 0.32768-1.0635 0.32764h-0.78955v-0.82715h0.58008c0.27213 0 0.4834-0.06445 0.63379-0.19336 0.15039-0.12891 0.3169-0.43327 0.49951-0.91309l0.17725-0.45117-2.4331-5.9189h1.0474l1.8799 4.7051 1.8799-4.7051h1.0474z" color="#000000" color-rendering="auto" dominant-baseline="auto" image-rendering="auto" solid-color="#000000" stop-color="#000000" style="font-feature-settings:normal;font-variant-alternates:normal;font-variant-caps:normal;font-variant-east-asian:normal;font-variant-ligatures:normal;font-variant-numeric:normal;font-variant-position:normal;font-variation-settings:normal;inline-size:0;isolation:auto;mix-blend-mode:normal;shape-margin:0;shape-padding:0;text-decoration-color:#000000;text-decoration-line:none;text-decoration-style:solid;text-indent:0;text-orientation:mixed;text-transform:none;white-space:normal"/>
  </g>
  <g fill="#fff" shape-rendering="auto" aria-label="ansible-galaxy">
   <path d="m10.162 11.088c-0.79853 0-1.3518 0.09131-1.6597 0.27393-0.30794 0.18262-0.46191 0.49414-0.46191 0.93457 0 0.35091 0.11458 0.63021 0.34375 0.83789 0.23275 0.2041 0.54785 0.30615 0.94531 0.30615 0.54785 0 0.98649-0.19336 1.3159-0.58008 0.33301-0.3903 0.49951-0.9077 0.49951-1.5522v-0.22022zm1.9712-0.4082v3.4321h-0.98828v-0.91309c-0.22559 0.36523-0.50667 0.63558-0.84326 0.81104-0.33659 0.17187-0.74839 0.25781-1.2354 0.25781-0.61589 0-1.1065-0.17187-1.4717-0.51562-0.36165-0.34733-0.54248-0.81103-0.54248-1.3911 0-0.67673 0.22559-1.187 0.67676-1.5308 0.45475-0.34375 1.1315-0.51562 2.0303-0.51562h1.3857v-0.09668c0-0.45475-0.15039-0.80565-0.45117-1.0527-0.2972-0.25065-0.71613-0.37598-1.2568-0.37598-0.34375 0-0.67855 0.04118-1.0044 0.12354-0.32585 0.08236-0.63916 0.2059-0.93994 0.37061v-0.91309c0.36165-0.13965 0.71255-0.24349 1.0527-0.31152 0.34017-0.071613 0.67138-0.10742 0.99365-0.10742 0.87013 0 1.52 0.22559 1.9497 0.67676s0.64451 1.1351 0.64453 2.0518z" color="#000000" color-rendering="auto" dominant-baseline="auto" image-rendering="auto" solid-color="#000000" stop-color="#000000" style="font-feature-settings:normal;font-variant-alternates:normal;font-variant-caps:normal;font-variant-east-asian:normal;font-variant-ligatures:normal;font-variant-numeric:normal;font-variant-position:normal;font-variation-settings:normal;inline-size:0;isolation:auto;mix-blend-mode:normal;shape-margin:0;shape-padding:0;text-decoration-color:#000000;text-decoration-line:none;text-decoration-style:solid;text-indent:0;text-orientation:mixed;text-transform:none;white-space:normal"/>
   <path d="m19.169 10.481v3.6309h-0.98828v-3.5986c0-0.56933-0.111-0.99543-0.33301-1.2783s-0.55501-0.42431-0.99902-0.42432c-0.53353 0-0.95426 0.17008-1.2622 0.51025s-0.46191 0.80387-0.46191 1.3911v3.3999h-0.99365v-6.0156h0.99365v0.93457c0.23633-0.36165 0.51383-0.632 0.83252-0.81104 0.32227-0.17903 0.69287-0.26855 1.1118-0.26855 0.69107 0 1.2139 0.21484 1.5684 0.64453 0.35449 0.42611 0.53174 1.0545 0.53174 1.8853z" color="#000000" color-rendering="auto" dominant-baseline="auto" image-rendering="auto" solid-color="#000000" stop-color="#000000" style="font-feature-settings:normal;font-variant-alternates:normal;font-variant-caps:normal;font-variant-east-asian:normal;font-variant-ligatures:normal;font-variant-numeric:normal;font-variant-position:normal;font-variation-settings:normal;inline-size:0;isolation:auto;mix-blend-mode:normal;shape-margin:0;shape-padding:0;text-decoration-color:#000000;text-decoration-line:none;text-decoration-style:solid;text-indent:0;text-orientation:mixed;text-transform:none;white-space:normal"/>
   <path d="m24.975 8.2737v0.93457c-0.27929-0.14323-0.56933-0.25065-0.87012-0.32227s-0.61231-0.10743-0.93457-0.10742c-0.49056 0-0.85936 0.075197-1.1064 0.22559-0.24349 0.15039-0.36523 0.37598-0.36523 0.67676 0 0.22917 0.08773 0.40999 0.26318 0.54248 0.17545 0.12891 0.52815 0.25244 1.0581 0.3706l0.33838 0.0752c0.7018 0.15039 1.1995 0.36345 1.4932 0.63916 0.2972 0.27213 0.4458 0.65347 0.4458 1.144 0 0.55859-0.22201 1.0008-0.66602 1.3267-0.44043 0.32585-1.0474 0.48877-1.8208 0.48877-0.32227 0-0.65887-0.03223-1.0098-0.09668-0.34733-0.06087-0.71437-0.15397-1.1011-0.2793v-1.0205c0.36523 0.18978 0.7251 0.33301 1.0796 0.42969 0.35449 0.0931 0.70539 0.13965 1.0527 0.13965 0.46549 0 0.82356-0.07878 1.0742-0.23633 0.25065-0.16113 0.37598-0.38672 0.37598-0.67676 0-0.26855-0.09131-0.47445-0.27393-0.61768-0.17903-0.14323-0.5747-0.28108-1.187-0.41357l-0.34375-0.08057c-0.61231-0.12891-1.0545-0.32585-1.3267-0.59082-0.27213-0.26855-0.4082-0.63559-0.4082-1.1011 0-0.56575 0.20052-1.0026 0.60156-1.3105 0.40104-0.30794 0.97037-0.46191 1.708-0.46191 0.36523 0 0.70897 0.026855 1.0312 0.080566 0.32227 0.053711 0.61947 0.13428 0.8916 0.2417z" color="#000000" color-rendering="auto" dominant-baseline="auto" image-rendering="auto" solid-color="#000000" stop-color="#000000" style="font-feature-settings:normal;font-variant-alternates:normal;font-variant-caps:normal;font-variant-east-asian:normal;font-variant-ligatures:normal;font-variant-numeric:normal;font-variant-position:normal;font-variation-settings:normal;inline-size:0;isolation:auto;mix-blend-mode:normal;shape-margin:0;shape-padding:0;text-decoration-color:#000000;text-decoration-line:none;text-decoration-style:solid;text-indent:0;text-orientation:mixed;text-transform:none;white-space:normal"/>
   <path d="m26.871 8.0965h0.98828v6.0156h-0.98828zm0-2.3418h0.98828v1.2515h-0.98828z" color="#000000" color-rendering="auto" dominant-baseline="auto" image-rendering="auto" solid-color="#000000" stop-color="#000000" style="font-feature-settings:normal;font-variant-alternates:normal;font-variant-caps:normal;font-variant-east-asian:normal;font-variant-ligatures:normal;font-variant-numeric:normal;font-variant-position:normal;font-variation-settings:normal;inline-size:0;isolation:auto;mix-blend-mode:normal;shape-margin:0;shape-padding:0;text-decoration-color:#000000;text-decoration-line:none;text-decoration-style:solid;text-indent:0;text-orientation:mixed;text-transform:none;white-space:normal"/>
   <path d="m34.246 11.11c0-0.72687-0.15039-1.2962-0.45117-1.708-0.2972-0.41537-0.7072-0.62305-1.23-0.62305-0.52279 0-0.93459 0.20768-1.2354 0.62305-0.2972 0.41179-0.4458 0.98112-0.4458 1.708s0.1486 1.298 0.4458 1.7134c0.30078 0.41179 0.71258 0.61768 1.2354 0.61768 0.52279 0 0.93279-0.20589 1.23-0.61768 0.30078-0.41537 0.45117-0.9865 0.45117-1.7134zm-3.3623-2.1001c0.20768-0.35807 0.46907-0.62305 0.78418-0.79492 0.31869-0.17545 0.69825-0.26318 1.1387-0.26318 0.73047 0 1.3231 0.29004 1.7778 0.87012 0.45833 0.58008 0.6875 1.3428 0.6875 2.2881 0 0.94533-0.22917 1.708-0.6875 2.2881-0.45475 0.58008-1.0474 0.87012-1.7778 0.87012-0.44043 0-0.81999-0.08594-1.1387-0.25781-0.31511-0.17545-0.5765-0.44222-0.78418-0.80029v0.90234h-0.99365v-8.3574h0.99365z" color="#000000" color-rendering="auto" dominant-baseline="auto" image-rendering="auto" solid-color="#000000" stop-color="#000000" style="font-feature-settings:normal;font-variant-alternates:normal;font-variant-caps:normal;font-variant-east-asian:normal;font-variant-ligatures:normal;font-variant-numeric:normal;font-variant-position:normal;font-variation-settings:normal;inline-size:0;isolation:auto;mix-blend-mode:normal;shape-margin:0;shape-padding:0;text-decoration-color:#000000;text-decoration-line:none;text-decoration-style:solid;text-indent:0;text-orientation:mixed;text-transform:none;white-space:normal"/>
   <path d="m36.91 5.7547h0.98828v8.3574h-0.98828z" color="#000000" color-rendering="auto" dominant-baseline="auto" image-rendering="auto" solid-color="#000000" stop-color="#000000" style="font-feature-settings:normal;font-variant-alternates:normal;font-variant-caps:normal;font-variant-east-asian:normal;font-variant-ligatures:normal;font-variant-numeric:normal;font-variant-position:normal;font-variation-settings:normal;inline-size:0;isolation:auto;mix-blend-mode:normal;shape-margin:0;shape-padding:0;text-decoration-color:#000000;text-decoration-line:none;text-decoration-style:solid;text-indent:0;text-orientation:mixed;text-transform:none;white-space:normal"/>
   <path d="m45.111 10.857v0.4834h-4.5439c0.04297 0.68033 0.24707 1.1995 0.6123 1.5576 0.36881 0.35449 0.88085 0.53174 1.5361 0.53174 0.37956 0 0.74659-0.04655 1.1011-0.13965 0.35807-0.0931 0.71257-0.23275 1.0635-0.41894v0.93457c-0.35449 0.15039-0.71793 0.26498-1.0903 0.34375-0.37239 0.07877-0.75016 0.11816-1.1333 0.11816-0.95967 0-1.7206-0.2793-2.2827-0.83789-0.55859-0.55859-0.83789-1.3141-0.83789-2.2666 0-0.98473 0.26497-1.7653 0.79492-2.3418 0.53353-0.58008 1.2515-0.87012 2.1538-0.87012 0.80927 0 1.4484 0.26139 1.9175 0.78418 0.47265 0.51921 0.70898 1.2264 0.70898 2.1216zm-0.98828-0.29004c-0.0072-0.54069-0.15934-0.97216-0.45654-1.2944-0.29362-0.32227-0.68392-0.4834-1.1709-0.4834-0.55143 0-0.99367 0.15576-1.3267 0.46729-0.32943 0.31153-0.51921 0.75016-0.56934 1.3159z" color="#000000" color-rendering="auto" dominant-baseline="auto" image-rendering="auto" solid-color="#000000" stop-color="#000000" style="font-feature-settings:normal;font-variant-alternates:normal;font-variant-caps:normal;font-variant-east-asian:normal;font-variant-ligatures:normal;font-variant-numeric:normal;font-variant-position:normal;font-variation-settings:normal;inline-size:0;isolation:auto;mix-blend-mode:normal;shape-margin:0;shape-padding:0;text-decoration-color:#000000;text-decoration-line:none;text-decoration-style:solid;text-indent:0;text-orientation:mixed;text-transform:none;white-space:normal"/>
   <path d="m46.234 10.659h2.895v0.88086h-2.895z" color="#000000" color-rendering="auto" dominant-baseline="auto" image-rendering="auto" solid-color="#000000" stop-color="#000000" style="font-feature-settings:normal;font-variant-alternates:normal;font-variant-caps:normal;font-variant-east-asian:normal;font-variant-ligatures:normal;font-variant-numeric:normal;font-variant-position:normal;font-variation-settings:normal;inline-size:0;isolation:auto;mix-blend-mode:normal;shape-margin:0;shape-padding:0;text-decoration-color:#000000;text-decoration-line:none;text-decoration-style:solid;text-indent:0;text-orientation:mixed;text-transform:none;white-space:normal"/>
   <path d="m54.661 11.034c0-0.71613-0.1486-1.2711-0.4458-1.665-0.29362-0.39388-0.70719-0.59082-1.2407-0.59082-0.52995 0-0.94351 0.19694-1.2407 0.59082-0.29362 0.39388-0.44043 0.94888-0.44043 1.665 0 0.71253 0.14681 1.2658 0.44043 1.6597 0.2972 0.39388 0.71077 0.59082 1.2407 0.59082 0.53353 0 0.94709-0.19694 1.2407-0.59082 0.2972-0.39388 0.4458-0.94711 0.4458-1.6597zm0.98828 2.3311c0 1.0241-0.22738 1.785-0.68213 2.2827-0.45475 0.5013-1.1512 0.75195-2.0894 0.75195-0.34733 0-0.67497-0.02686-0.98291-0.08057-0.30794-0.05013-0.60693-0.12891-0.89697-0.23633v-0.96143c0.29004 0.15755 0.5765 0.27393 0.85938 0.34912 0.28288 0.07519 0.57113 0.11279 0.86475 0.11279 0.64811 0 1.1333-0.17008 1.4556-0.51025 0.32227-0.33659 0.4834-0.84685 0.4834-1.5308v-0.48877c-0.2041 0.35449-0.46549 0.61947-0.78418 0.79492s-0.70002 0.26318-1.144 0.26318c-0.7376 0-1.332-0.28109-1.7832-0.84326-0.45117-0.56217-0.67676-1.307-0.67676-2.2344 0-0.931 0.22559-1.6776 0.67676-2.2397 0.45117-0.56217 1.0456-0.84326 1.7832-0.84326 0.44401 0 0.82535 0.087727 1.144 0.26318 0.31869 0.17545 0.58008 0.44043 0.78418 0.79492v-0.91309h0.98828z" color="#000000" color-rendering="auto" dominant-baseline="auto" image-rendering="auto" solid-color="#000000" stop-color="#000000" style="font-feature-settings:normal;font-variant-alternates:normal;font-variant-caps:normal;font-variant-east-asian:normal;font-variant-ligatures:normal;font-variant-numeric:normal;font-variant-position:normal;font-variation-settings:normal;inline-size:0;isolation:auto;mix-blend-mode:normal;shape-margin:0;shape-padding:0;text-decoration-color:#000000;text-decoration-line:none;text-decoration-style:solid;text-indent:0;text-orientation:mixed;text-transform:none;white-space:normal"/>
   <path d="m60.419 11.088c-0.79853 0-1.3518 0.09131-1.6597 0.27393s-0.4619 0.49414-0.46191 0.93457c0 0.35091 0.11458 0.63021 0.34375 0.83789 0.23275 0.2041 0.54785 0.30615 0.94531 0.30615 0.54785 0 0.98649-0.19336 1.3159-0.58008 0.33301-0.3903 0.49951-0.9077 0.49951-1.5522v-0.22022zm1.9712-0.4082v3.4321h-0.98828v-0.91309c-0.22559 0.36523-0.50667 0.63558-0.84326 0.81104-0.33659 0.17187-0.74839 0.25781-1.2354 0.25781-0.61589 0-1.1065-0.17187-1.4717-0.51562-0.36165-0.34733-0.54248-0.81103-0.54248-1.3911 0-0.67673 0.22559-1.187 0.67676-1.5308 0.45475-0.34375 1.1315-0.51562 2.0303-0.51562h1.3857v-0.09668c0-0.45475-0.15039-0.80565-0.45117-1.0527-0.2972-0.25065-0.71613-0.37598-1.2568-0.37598-0.34375 0-0.67855 0.04118-1.0044 0.12354-0.32585 0.08236-0.63916 0.2059-0.93994 0.37061v-0.91308c0.36165-0.13965 0.71255-0.24349 1.0527-0.31152 0.34017-0.071613 0.67138-0.10742 0.99365-0.10742 0.87013 0 1.52 0.22559 1.9497 0.67676s0.64451 1.1351 0.64453 2.0518z" color="#000000" color-rendering="auto" dominant-baseline="auto" image-rendering="auto" solid-color="#000000" stop-color="#000000" style="font-feature-settings:normal;font-variant-alternates:normal;font-variant-caps:normal;font-variant-east-asian:normal;font-variant-ligatures:normal;font-variant-numeric:normal;font-variant-position:normal;font-variation-settings:normal;inline-size:0;isolation:auto;mix-blend-mode:normal;shape-margin:0;shape-padding:0;text-decoration-color:#000000;text-decoration-line:none;text-decoration-style:solid;text-indent:0;text-orientation:mixed;text-transform:none;white-space:normal"/>
   <path d="m64.426 5.7547h0.98828v8.3574h-0.98828z" color="#000000" color-rendering="auto" dominant-baseline="auto" image-rendering="auto" solid-color="#000000" stop-color="#000000" style="font-feature-settings:normal;font-variant-alternates:normal;font-variant-caps:normal;font-variant-east-asian:normal;font-variant-ligatures:normal;font-variant-numeric:normal;font-variant-position:normal;font-variation-settings:normal;inline-size:0;isolation:auto;mix-blend-mode:normal;shape-margin:0;shape-padding:0;text-decoration-color:#000000;text-decoration-line:none;text-decoration-style:solid;text-indent:0;text-orientation:mixed;text-transform:none;white-space:normal"/>
   <path d="m70.216 11.088c-0.79853 0-1.3518 0.09131-1.6597 0.27393s-0.4619 0.49414-0.46191 0.93457c0 0.35091 0.11458 0.63021 0.34375 0.83789 0.23275 0.2041 0.54785 0.30615 0.94531 0.30615 0.54785 0 0.98649-0.19336 1.3159-0.58008 0.33301-0.3903 0.49951-0.9077 0.49951-1.5522v-0.22022zm1.9712-0.4082v3.4321h-0.98828v-0.91309c-0.22559 0.36523-0.50667 0.63558-0.84326 0.81104-0.33659 0.17187-0.74839 0.25781-1.2354 0.25781-0.61589 0-1.1065-0.17187-1.4717-0.51562-0.36165-0.34733-0.54248-0.81103-0.54248-1.3911 0-0.67673 0.22559-1.187 0.67676-1.5308 0.45475-0.34375 1.1315-0.51562 2.0303-0.51562h1.3857v-0.09668c0-0.45475-0.15039-0.80565-0.45117-1.0527-0.2972-0.25065-0.71613-0.37598-1.2568-0.37598-0.34375 0-0.67855 0.04118-1.0044 0.12354-0.32585 0.08236-0.63916 0.2059-0.93994 0.37061v-0.91308c0.36165-0.13965 0.71255-0.24349 1.0527-0.31152 0.34017-0.071613 0.67138-0.10742 0.99365-0.10742 0.87013 0 1.52 0.22559 1.9497 0.67676s0.64451 1.1351 0.64453 2.0518z" color="#000000" color-rendering="auto" dominant-baseline="auto" image-rendering="auto" solid-color="#000000" stop-color="#000000" style="font-feature-settings:normal;font-variant-alternates:normal;font-variant-caps:normal;font-variant-east-asian:normal;font-variant-ligatures:normal;font-variant-numeric:normal;font-variant-position:normal;font-variation-settings:normal;inline-size:0;isolation:auto;mix-blend-mode:normal;shape-margin:0;shape-padding:0;text-decoration-color:#000000;text-decoration-line:none;text-decoration-style:solid;text-indent:0;text-orientation:mixed;text-transform:none;white-space:normal"/>
   <path d="m79.223 8.0965-2.1753 2.9272 2.2881 3.0884h-1.1655l-1.751-2.3633-1.751 2.3633h-1.1655l2.3364-3.1475-2.1377-2.8682h1.1655l1.5952 2.1431 1.5952-2.1431z" color="#000000" color-rendering="auto" dominant-baseline="auto" image-rendering="auto" solid-color="#000000" stop-color="#000000" style="font-feature-settings:normal;font-variant-alternates:normal;font-variant-caps:normal;font-variant-east-asian:normal;font-variant-ligatures:normal;font-variant-numeric:normal;font-variant-position:normal;font-variation-settings:normal;inline-size:0;isolation:auto;mix-blend-mode:normal;shape-margin:0;shape-padding:0;text-decoration-color:#000000;text-decoration-line:none;text-decoration-style:solid;text-indent:0;text-orientation:mixed;text-transform:none;white-space:normal"/>
   <path d="m83.235 14.671c-0.27929 0.71613-0.55143 1.1834-0.81641 1.4019s-0.61948 0.32768-1.0635 0.32764h-0.78955v-0.82715h0.58008c0.27213 0 0.4834-0.06445 0.63379-0.19336 0.15039-0.12891 0.3169-0.43327 0.49951-0.91309l0.17725-0.45117-2.4331-5.9189h1.0474l1.8799 4.7051 1.8799-4.7051h1.0474z" color="#000000" color-rendering="auto" dominant-baseline="auto" image-rendering="auto" solid-color="#000000" stop-color="#000000" style="font-feature-settings:normal;font-variant-alternates:normal;font-variant-caps:normal;font-variant-east-asian:normal;font-variant-ligatures:normal;font-variant-numeric:normal;font-variant-position:normal;font-variation-settings:normal;inline-size:0;isolation:auto;mix-blend-mode:normal;shape-margin:0;shape-padding:0;text-decoration-color:#000000;text-decoration-line:none;text-decoration-style:solid;text-indent:0;text-orientation:mixed;text-transform:none;white-space:normal"/>
  </g>
  <g dominant-baseline="auto" fill="#010101" fill-opacity=".66791" filter="url(#filter923)" shape-rendering="auto" stroke-width=".1" style="font-feature-settings:normal;font-variant-alternates:normal;font-variant-caps:normal;font-variant-ligatures:normal;font-variant-numeric:normal;font-variant-position:normal;shape-padding:0;text-decoration-color:#000000;text-decoration-line:none;text-decoration-style:solid;text-indent:0;text-orientation:mixed;text-transform:none;white-space:normal" aria-label="do1jlr.restic">
   <path d="m97.454 9.737v-3.2549h0.98828v8.3574h-0.98828v-0.90234c-0.20768 0.35807-0.47087 0.62484-0.78955 0.80029-0.3151 0.17188-0.69466 0.25781-1.1387 0.25781-0.72689 0-1.3195-0.29004-1.7778-0.87012-0.45475-0.58008-0.68213-1.3428-0.68213-2.2881s0.22738-1.708 0.68213-2.2881c0.45833-0.58008 1.0509-0.87012 1.7778-0.87012 0.44401 0 0.82357 0.087728 1.1387 0.26318 0.31868 0.17188 0.58187 0.43685 0.78955 0.79492zm-3.3677 2.1001c0 0.72689 0.1486 1.298 0.4458 1.7134 0.30078 0.41178 0.71256 0.61768 1.2354 0.61768 0.52279 0 0.93457-0.20589 1.2354-0.61768 0.30078-0.41536 0.45117-0.98649 0.45117-1.7134s-0.15039-1.2962-0.45117-1.708c-0.30078-0.41536-0.71256-0.62305-1.2354-0.62305-0.52279 0-0.93457 0.20768-1.2354 0.62305-0.2972 0.41178-0.4458 0.98112-0.4458 1.708z" color="#000000" color-rendering="auto" dominant-baseline="auto" image-rendering="auto" solid-color="#000000" stop-color="#000000" style="font-feature-settings:normal;font-variant-alternates:normal;font-variant-caps:normal;font-variant-east-asian:normal;font-variant-ligatures:normal;font-variant-numeric:normal;font-variant-position:normal;font-variation-settings:normal;inline-size:0;isolation:auto;mix-blend-mode:normal;shape-margin:0;shape-padding:0;text-decoration-color:#000000;text-decoration-line:none;text-decoration-style:solid;text-indent:0;text-orientation:mixed;text-transform:none;white-space:normal"/>
   <path d="m102.81 9.5168c-0.52995 0-0.94889 0.20768-1.2568 0.62305-0.30795 0.41178-0.46192 0.97754-0.46192 1.6973s0.15218 1.2873 0.45655 1.7026c0.30794 0.41178 0.72867 0.61768 1.2622 0.61768 0.52637 0 0.94352-0.20768 1.2515-0.62305 0.30794-0.41536 0.46191-0.98112 0.46191-1.6973 0-0.71256-0.15397-1.2765-0.46191-1.6919-0.30795-0.41895-0.7251-0.62842-1.2515-0.62842zm0-0.83789c0.85938 0 1.5344 0.2793 2.0249 0.83789s0.73584 1.332 0.73584 2.3203c0 0.9847-0.24528 1.7581-0.73584 2.3203-0.49056 0.55859-1.1655 0.83789-2.0249 0.83789-0.86295 0-1.5397-0.2793-2.0303-0.83789-0.48698-0.56217-0.73047-1.3356-0.73047-2.3203 0-0.98828 0.24349-1.7617 0.73047-2.3203 0.49056-0.55859 1.1673-0.83789 2.0303-0.83789z" color="#000000" color-rendering="auto" dominant-baseline="auto" image-rendering="auto" solid-color="#000000" stop-color="#000000" style="font-feature-settings:normal;font-variant-alternates:normal;font-variant-caps:normal;font-variant-east-asian:normal;font-variant-ligatures:normal;font-variant-numeric:normal;font-variant-position:normal;font-variation-settings:normal;inline-size:0;isolation:auto;mix-blend-mode:normal;shape-margin:0;shape-padding:0;text-decoration-color:#000000;text-decoration-line:none;text-decoration-style:solid;text-indent:0;text-orientation:mixed;text-transform:none;white-space:normal"/>
   <path d="m107.54 13.926h1.7725v-6.1177l-1.9282 0.38672v-0.98828l1.9175-0.38672h1.085v7.106h1.7725v0.91309h-4.6191z" color="#000000" color-rendering="auto" dominant-baseline="auto" image-rendering="auto" solid-color="#000000" stop-color="#000000" style="font-feature-settings:normal;font-variant-alternates:normal;font-variant-caps:normal;font-variant-east-asian:normal;font-variant-ligatures:normal;font-variant-numeric:normal;font-variant-position:normal;font-variation-settings:normal;inline-size:0;isolation:auto;mix-blend-mode:normal;shape-margin:0;shape-padding:0;text-decoration-color:#000000;text-decoration-line:none;text-decoration-style:solid;text-indent:0;text-orientation:mixed;text-transform:none;white-space:normal"/>
   <path d="m114.21 8.8239h0.98829v6.123c0 0.76628-0.14681 1.3213-0.44043 1.665-0.29004 0.34375-0.75912 0.51562-1.4072 0.51562h-0.37598v-0.83789h0.26319c0.37597 0 0.63199-0.08773 0.76806-0.26318 0.13607-0.17188 0.2041-0.53174 0.2041-1.0796zm0-2.3418h0.98829v1.2515h-0.98829z" color="#000000" color-rendering="auto" dominant-baseline="auto" image-rendering="auto" solid-color="#000000" stop-color="#000000" style="font-feature-settings:normal;font-variant-alternates:normal;font-variant-caps:normal;font-variant-east-asian:normal;font-variant-ligatures:normal;font-variant-numeric:normal;font-variant-position:normal;font-variation-settings:normal;inline-size:0;isolation:auto;mix-blend-mode:normal;shape-margin:0;shape-padding:0;text-decoration-color:#000000;text-decoration-line:none;text-decoration-style:solid;text-indent:0;text-orientation:mixed;text-transform:none;white-space:normal"/>
   <path d="m117.26 6.4821h0.98828v8.3574h-0.98828z" color="#000000" color-rendering="auto" dominant-baseline="auto" image-rendering="auto" solid-color="#000000" stop-color="#000000" style="font-feature-settings:normal;font-variant-alternates:normal;font-variant-caps:normal;font-variant-east-asian:normal;font-variant-ligatures:normal;font-variant-numeric:normal;font-variant-position:normal;font-variation-settings:normal;inline-size:0;isolation:auto;mix-blend-mode:normal;shape-margin:0;shape-padding:0;text-decoration-color:#000000;text-decoration-line:none;text-decoration-style:solid;text-indent:0;text-orientation:mixed;text-transform:none;white-space:normal"/>
   <path d="m123.8 9.7477c-0.111-0.064453-0.23275-0.111-0.36524-0.13965-0.1289-0.032227-0.27213-0.04834-0.42968-0.04834-0.55859 0-0.98828 0.18262-1.2891 0.54785-0.2972 0.36165-0.4458 0.88265-0.4458 1.563v3.1689h-0.99365v-6.0156h0.99365v0.93457c0.20769-0.36523 0.47803-0.63558 0.81104-0.81104 0.33301-0.17904 0.73763-0.26855 1.2139-0.26855 0.068 0 0.14323 0.00537 0.22558 0.016113 0.0824 0.00716 0.17367 0.019694 0.27393 0.037598z" color="#000000" color-rendering="auto" dominant-baseline="auto" image-rendering="auto" solid-color="#000000" stop-color="#000000" style="font-feature-settings:normal;font-variant-alternates:normal;font-variant-caps:normal;font-variant-east-asian:normal;font-variant-ligatures:normal;font-variant-numeric:normal;font-variant-position:normal;font-variation-settings:normal;inline-size:0;isolation:auto;mix-blend-mode:normal;shape-margin:0;shape-padding:0;text-decoration-color:#000000;text-decoration-line:none;text-decoration-style:solid;text-indent:0;text-orientation:mixed;text-transform:none;white-space:normal"/>
   <path d="m123.97 13.475h1.1333v1.3643h-1.1333z" color="#000000" color-rendering="auto" dominant-baseline="auto" image-rendering="auto" solid-color="#000000" stop-color="#000000" style="font-feature-settings:normal;font-variant-alternates:normal;font-variant-caps:normal;font-variant-east-asian:normal;font-variant-ligatures:normal;font-variant-numeric:normal;font-variant-position:normal;font-variation-settings:normal;inline-size:0;isolation:auto;mix-blend-mode:normal;shape-margin:0;shape-padding:0;text-decoration-color:#000000;text-decoration-line:none;text-decoration-style:solid;text-indent:0;text-orientation:mixed;text-transform:none;white-space:normal"/>
   <path d="m130.81 9.7477c-0.11101-0.064453-0.23275-0.111-0.36524-0.13965-0.12891-0.032227-0.27214-0.04834-0.42969-0.04834-0.55859 0-0.98828 0.18262-1.2891 0.54785-0.2972 0.36165-0.4458 0.88265-0.4458 1.563v3.1689h-0.99365v-6.0156h0.99365v0.93457c0.20768-0.36523 0.47803-0.63558 0.81104-0.81104 0.33301-0.17904 0.73763-0.26855 1.2139-0.26855 0.068 0 0.14323 0.00537 0.22559 0.016113 0.0823 0.00716 0.17366 0.019694 0.27393 0.037598z" color="#000000" color-rendering="auto" dominant-baseline="auto" image-rendering="auto" solid-color="#000000" stop-color="#000000" style="font-feature-settings:normal;font-variant-alternates:normal;font-variant-caps:normal;font-variant-east-asian:normal;font-variant-ligatures:normal;font-variant-numeric:normal;font-variant-position:normal;font-variation-settings:normal;inline-size:0;isolation:auto;mix-blend-mode:normal;shape-margin:0;shape-padding:0;text-decoration-color:#000000;text-decoration-line:none;text-decoration-style:solid;text-indent:0;text-orientation:mixed;text-transform:none;white-space:normal"/>
   <path d="m136.75 11.585v0.4834h-4.544c0.0429 0.68034 0.24704 1.1995 0.61231 1.5576 0.36881 0.35449 0.88086 0.53174 1.5361 0.53174 0.37955 0 0.74658-0.04655 1.1011-0.13965 0.35807-0.0931 0.71257-0.23275 1.0635-0.41894v0.93457c-0.35449 0.15039-0.71794 0.26497-1.0903 0.34375-0.3724 0.07878-0.75017 0.11816-1.1333 0.11816-0.95964 0-1.7206-0.2793-2.2827-0.83789-0.55859-0.55859-0.83789-1.3141-0.83789-2.2666 0-0.9847 0.26497-1.7653 0.79492-2.3418 0.53353-0.58008 1.2515-0.87012 2.1538-0.87012 0.80925 0 1.4484 0.26139 1.9175 0.78418 0.47266 0.51921 0.70899 1.2264 0.70899 2.1216zm-0.98829-0.29004c-7e-3 -0.54069-0.15931-0.97217-0.45654-1.2944-0.29362-0.32227-0.68392-0.4834-1.1709-0.4834-0.55143 0-0.99365 0.15576-1.3267 0.46729-0.32943 0.31152-0.5192 0.75016-0.56933 1.3159z" color="#000000" color-rendering="auto" dominant-baseline="auto" image-rendering="auto" solid-color="#000000" stop-color="#000000" style="font-feature-settings:normal;font-variant-alternates:normal;font-variant-caps:normal;font-variant-east-asian:normal;font-variant-ligatures:normal;font-variant-numeric:normal;font-variant-position:normal;font-variation-settings:normal;inline-size:0;isolation:auto;mix-blend-mode:normal;shape-margin:0;shape-padding:0;text-decoration-color:#000000;text-decoration-line:none;text-decoration-style:solid;text-indent:0;text-orientation:mixed;text-transform:none;white-space:normal"/>
   <path d="m142.21 9.0012v0.93457c-0.2793-0.14323-0.56934-0.25065-0.87012-0.32227-0.30078-0.071615-0.6123-0.10742-0.93457-0.10742-0.49056 0-0.85938 0.075195-1.1064 0.22559-0.24349 0.15039-0.36523 0.37598-0.36523 0.67676 0 0.22917 0.0877 0.40999 0.26318 0.54248 0.17546 0.12891 0.52816 0.25244 1.0581 0.37061l0.33838 0.0752c0.70182 0.15039 1.1995 0.36344 1.4932 0.63916 0.2972 0.27214 0.4458 0.65348 0.4458 1.144 0 0.55859-0.222 1.0008-0.66601 1.3267-0.44043 0.32585-1.0474 0.48877-1.8208 0.48877-0.32227 0-0.65886-0.03223-1.0098-0.09668-0.34733-0.06087-0.71436-0.15397-1.1011-0.2793v-1.0205c0.36523 0.18978 0.7251 0.33301 1.0796 0.42969 0.35449 0.0931 0.7054 0.13965 1.0527 0.13965 0.46549 0 0.82357-0.07878 1.0742-0.23633 0.25065-0.16113 0.37598-0.38672 0.37598-0.67676 0-0.26856-0.0913-0.47445-0.27393-0.61768-0.17903-0.14323-0.5747-0.28109-1.187-0.41357l-0.34375-0.08057c-0.61231-0.12891-1.0545-0.32585-1.3267-0.59082-0.27213-0.26856-0.4082-0.63558-0.4082-1.1011 0-0.56576 0.20052-1.0026 0.60156-1.3105s0.97038-0.46191 1.708-0.46191c0.36523 0 0.70898 0.026855 1.0312 0.080566 0.32226 0.053711 0.61946 0.13428 0.8916 0.2417z" color="#000000" color-rendering="auto" dominant-baseline="auto" image-rendering="auto" solid-color="#000000" stop-color="#000000" style="font-feature-settings:normal;font-variant-alternates:normal;font-variant-caps:normal;font-variant-east-asian:normal;font-variant-ligatures:normal;font-variant-numeric:normal;font-variant-position:normal;font-variation-settings:normal;inline-size:0;isolation:auto;mix-blend-mode:normal;shape-margin:0;shape-padding:0;text-decoration-color:#000000;text-decoration-line:none;text-decoration-style:solid;text-indent:0;text-orientation:mixed;text-transform:none;white-space:normal"/>
   <path d="m145.09 7.1159v1.708h2.0356v0.76807h-2.0356v3.2656c0 0.49056 0.0662 0.80566 0.19873 0.94531 0.13607 0.13965 0.40999 0.20947 0.82178 0.20947h1.0151v0.82715h-1.0151c-0.76269 0-1.2891-0.14144-1.5791-0.42432-0.29004-0.28646-0.43506-0.80566-0.43506-1.5576v-3.2656h-0.7251v-0.76807h0.7251v-1.708z" color="#000000" color-rendering="auto" dominant-baseline="auto" image-rendering="auto" solid-color="#000000" stop-color="#000000" style="font-feature-settings:normal;font-variant-alternates:normal;font-variant-caps:normal;font-variant-east-asian:normal;font-variant-ligatures:normal;font-variant-numeric:normal;font-variant-position:normal;font-variation-settings:normal;inline-size:0;isolation:auto;mix-blend-mode:normal;shape-margin:0;shape-padding:0;text-decoration-color:#000000;text-decoration-line:none;text-decoration-style:solid;text-indent:0;text-orientation:mixed;text-transform:none;white-space:normal"/>
   <path d="m148.42 8.8239h0.98828v6.0156h-0.98828zm0-2.3418h0.98828v1.2515h-0.98828z" color="#000000" color-rendering="auto" dominant-baseline="auto" image-rendering="auto" solid-color="#000000" stop-color="#000000" style="font-feature-settings:normal;font-variant-alternates:normal;font-variant-caps:normal;font-variant-east-asian:normal;font-variant-ligatures:normal;font-variant-numeric:normal;font-variant-position:normal;font-variation-settings:normal;inline-size:0;isolation:auto;mix-blend-mode:normal;shape-margin:0;shape-padding:0;text-decoration-color:#000000;text-decoration-line:none;text-decoration-style:solid;text-indent:0;text-orientation:mixed;text-transform:none;white-space:normal"/>
   <path d="m155.81 9.0549v0.92383c-0.2793-0.15397-0.56039-0.26855-0.84327-0.34375-0.27929-0.078776-0.56217-0.11816-0.84863-0.11816-0.64095 0-1.1387 0.2041-1.4932 0.6123-0.35449 0.40462-0.53174 0.97396-0.53174 1.708s0.17725 1.3052 0.53174 1.7134c0.35449 0.40462 0.85221 0.60693 1.4932 0.60693 0.28646 0 0.56934-0.0376 0.84863-0.11279 0.28288-0.07878 0.56397-0.19515 0.84327-0.34912v0.91309c-0.27572 0.12891-0.56218 0.22559-0.85938 0.29004-0.29362 0.06445-0.60693 0.09668-0.93994 0.09668-0.90593 0-1.6256-0.28467-2.1592-0.854s-0.80029-1.3374-0.80029-2.3042c0-0.98112 0.26855-1.7528 0.80566-2.3149 0.54069-0.56217 1.2801-0.84326 2.2183-0.84326 0.30437 0 0.60157 0.032227 0.8916 0.09668 0.29004 0.060873 0.57113 0.15397 0.84327 0.2793z" color="#000000" color-rendering="auto" dominant-baseline="auto" image-rendering="auto" solid-color="#000000" stop-color="#000000" style="font-feature-settings:normal;font-variant-alternates:normal;font-variant-caps:normal;font-variant-east-asian:normal;font-variant-ligatures:normal;font-variant-numeric:normal;font-variant-position:normal;font-variation-settings:normal;inline-size:0;isolation:auto;mix-blend-mode:normal;shape-margin:0;shape-padding:0;text-decoration-color:#000000;text-decoration-line:none;text-decoration-style:solid;text-indent:0;text-orientation:mixed;text-transform:none;white-space:normal"/>
  </g>
  <g fill="#fff" shape-rendering="auto" style="font-feature-settings:normal;font-variant-caps:normal;font-variant-ligatures:normal;font-variant-numeric:normal" aria-label="do1jlr.restic">
   <path d="m97.454 9.189v-3.2549h0.98828v8.3574h-0.98828v-0.90234c-0.20768 0.35807-0.47087 0.62484-0.78955 0.80029-0.3151 0.17188-0.69466 0.25781-1.1387 0.25781-0.72689 0-1.3195-0.29004-1.7778-0.87012-0.45475-0.58008-0.68213-1.3428-0.68213-2.2881 0-0.94531 0.22738-1.708 0.68213-2.2881 0.45833-0.58008 1.0509-0.87012 1.7778-0.87012 0.44401 0 0.82357 0.087728 1.1387 0.26318 0.31868 0.17188 0.58187 0.43685 0.78955 0.79492zm-3.3677 2.1001c0 0.72689 0.1486 1.298 0.4458 1.7134 0.30078 0.41178 0.71256 0.61768 1.2354 0.61768 0.52279 0 0.93457-0.20589 1.2354-0.61768 0.30078-0.41536 0.45117-0.98649 0.45117-1.7134 0-0.72689-0.15039-1.2962-0.45117-1.708-0.30078-0.41536-0.71256-0.62305-1.2354-0.62305-0.52279 0-0.93457 0.20768-1.2354 0.62305-0.2972 0.41178-0.4458 0.98112-0.4458 1.708z" color="#000000" color-rendering="auto" dominant-baseline="auto" image-rendering="auto" solid-color="#000000" stop-color="#000000" style="font-feature-settings:normal;font-variant-alternates:normal;font-variant-caps:normal;font-variant-east-asian:normal;font-variant-ligatures:normal;font-variant-numeric:normal;font-variant-position:normal;font-variation-settings:normal;inline-size:0;isolation:auto;mix-blend-mode:normal;shape-margin:0;shape-padding:0;text-decoration-color:#000000;text-decoration-line:none;text-decoration-style:solid;text-indent:0;text-orientation:mixed;text-transform:none;white-space:normal"/>
   <path d="m102.81 8.9688c-0.52995 0-0.94889 0.20768-1.2568 0.62305-0.30795 0.41178-0.46192 0.97754-0.46192 1.6973 0 0.71973 0.15218 1.2873 0.45655 1.7026 0.30794 0.41178 0.72867 0.61768 1.2622 0.61768 0.52637 0 0.94352-0.20768 1.2515-0.62305 0.30794-0.41536 0.46191-0.98112 0.46191-1.6973 0-0.71256-0.15397-1.2765-0.46191-1.6919-0.30795-0.41895-0.7251-0.62842-1.2515-0.62842zm0-0.83789c0.85938 0 1.5344 0.2793 2.0249 0.83789s0.73584 1.332 0.73584 2.3203c0 0.9847-0.24528 1.7581-0.73584 2.3203-0.49056 0.55859-1.1655 0.83789-2.0249 0.83789-0.86295 0-1.5397-0.2793-2.0303-0.83789-0.48698-0.56218-0.73047-1.3356-0.73047-2.3203 0-0.98828 0.24349-1.7617 0.73047-2.3203 0.49056-0.55859 1.1673-0.83789 2.0303-0.83789z" color="#000000" color-rendering="auto" dominant-baseline="auto" image-rendering="auto" solid-color="#000000" stop-color="#000000" style="font-feature-settings:normal;font-variant-alternates:normal;font-variant-caps:normal;font-variant-east-asian:normal;font-variant-ligatures:normal;font-variant-numeric:normal;font-variant-position:normal;font-variation-settings:normal;inline-size:0;isolation:auto;mix-blend-mode:normal;shape-margin:0;shape-padding:0;text-decoration-color:#000000;text-decoration-line:none;text-decoration-style:solid;text-indent:0;text-orientation:mixed;text-transform:none;white-space:normal"/>
   <path d="m107.54 13.378h1.7725v-6.1177l-1.9282 0.38672v-0.98828l1.9175-0.38672h1.085v7.106h1.7725v0.91309h-4.6191z" color="#000000" color-rendering="auto" dominant-baseline="auto" image-rendering="auto" solid-color="#000000" stop-color="#000000" style="font-feature-settings:normal;font-variant-alternates:normal;font-variant-caps:normal;font-variant-east-asian:normal;font-variant-ligatures:normal;font-variant-numeric:normal;font-variant-position:normal;font-variation-settings:normal;inline-size:0;isolation:auto;mix-blend-mode:normal;shape-margin:0;shape-padding:0;text-decoration-color:#000000;text-decoration-line:none;text-decoration-style:solid;text-indent:0;text-orientation:mixed;text-transform:none;white-space:normal"/>
   <path d="m114.21 8.2759h0.98829v6.123c0 0.76628-0.14681 1.3213-0.44043 1.665-0.29004 0.34375-0.75912 0.51562-1.4072 0.51562h-0.37598v-0.83789h0.26319c0.37597 0 0.63199-0.08773 0.76806-0.26318 0.13607-0.17188 0.2041-0.53174 0.2041-1.0796zm0-2.3418h0.98829v1.2515h-0.98829z" color="#000000" color-rendering="auto" dominant-baseline="auto" image-rendering="auto" solid-color="#000000" stop-color="#000000" style="font-feature-settings:normal;font-variant-alternates:normal;font-variant-caps:normal;font-variant-east-asian:normal;font-variant-ligatures:normal;font-variant-numeric:normal;font-variant-position:normal;font-variation-settings:normal;inline-size:0;isolation:auto;mix-blend-mode:normal;shape-margin:0;shape-padding:0;text-decoration-color:#000000;text-decoration-line:none;text-decoration-style:solid;text-indent:0;text-orientation:mixed;text-transform:none;white-space:normal"/>
   <path d="m117.26 5.9341h0.98828v8.3574h-0.98828z" color="#000000" color-rendering="auto" dominant-baseline="auto" image-rendering="auto" solid-color="#000000" stop-color="#000000" style="font-feature-settings:normal;font-variant-alternates:normal;font-variant-caps:normal;font-variant-east-asian:normal;font-variant-ligatures:normal;font-variant-numeric:normal;font-variant-position:normal;font-variation-settings:normal;inline-size:0;isolation:auto;mix-blend-mode:normal;shape-margin:0;shape-padding:0;text-decoration-color:#000000;text-decoration-line:none;text-decoration-style:solid;text-indent:0;text-orientation:mixed;text-transform:none;white-space:normal"/>
   <path d="m123.8 9.1997c-0.111-0.064453-0.23275-0.111-0.36524-0.13965-0.1289-0.032227-0.27213-0.04834-0.42968-0.04834-0.55859 0-0.98828 0.18262-1.2891 0.54785-0.2972 0.36165-0.4458 0.88265-0.4458 1.563v3.1689h-0.99365v-6.0156h0.99365v0.93457c0.20769-0.36523 0.47803-0.63558 0.81104-0.81104 0.33301-0.17904 0.73763-0.26855 1.2139-0.26855 0.068 0 0.14323 0.00537 0.22558 0.016113 0.0824 0.00716 0.17367 0.019694 0.27393 0.037598z" color="#000000" color-rendering="auto" dominant-baseline="auto" image-rendering="auto" solid-color="#000000" stop-color="#000000" style="font-feature-settings:normal;font-variant-alternates:normal;font-variant-caps:normal;font-variant-east-asian:normal;font-variant-ligatures:normal;font-variant-numeric:normal;font-variant-position:normal;font-variation-settings:normal;inline-size:0;isolation:auto;mix-blend-mode:normal;shape-margin:0;shape-padding:0;text-decoration-color:#000000;text-decoration-line:none;text-decoration-style:solid;text-indent:0;text-orientation:mixed;text-transform:none;white-space:normal"/>
   <path d="m123.97 12.927h1.1333v1.3643h-1.1333z" color="#000000" color-rendering="auto" dominant-baseline="auto" image-rendering="auto" solid-color="#000000" stop-color="#000000" style="font-feature-settings:normal;font-variant-alternates:normal;font-variant-caps:normal;font-variant-east-asian:normal;font-variant-ligatures:normal;font-variant-numeric:normal;font-variant-position:normal;font-variation-settings:normal;inline-size:0;isolation:auto;mix-blend-mode:normal;shape-margin:0;shape-padding:0;text-decoration-color:#000000;text-decoration-line:none;text-decoration-style:solid;text-indent:0;text-orientation:mixed;text-transform:none;white-space:normal"/>
   <path d="m130.81 9.1997c-0.11101-0.064453-0.23275-0.111-0.36524-0.13965-0.12891-0.032227-0.27214-0.04834-0.42969-0.04834-0.55859 0-0.98828 0.18262-1.2891 0.54785-0.2972 0.36165-0.4458 0.88265-0.4458 1.563v3.1689h-0.99365v-6.0156h0.99365v0.93457c0.20768-0.36523 0.47803-0.63558 0.81104-0.81104 0.33301-0.17904 0.73763-0.26855 1.2139-0.26855 0.068 0 0.14323 0.00537 0.22559 0.016113 0.0823 0.00716 0.17366 0.019694 0.27393 0.037598z" color="#000000" color-rendering="auto" dominant-baseline="auto" image-rendering="auto" solid-color="#000000" stop-color="#000000" style="font-feature-settings:normal;font-variant-alternates:normal;font-variant-caps:normal;font-variant-east-asian:normal;font-variant-ligatures:normal;font-variant-numeric:normal;font-variant-position:normal;font-variation-settings:normal;inline-size:0;isolation:auto;mix-blend-mode:normal;shape-margin:0;shape-padding:0;text-decoration-color:#000000;text-decoration-line:none;text-decoration-style:solid;text-indent:0;text-orientation:mixed;text-transform:none;white-space:normal"/>
   <path d="m136.75 11.037v0.4834h-4.544c0.0429 0.68034 0.24704 1.1995 0.61231 1.5576 0.36881 0.35449 0.88086 0.53174 1.5361 0.53174 0.37955 0 0.74658-0.04655 1.1011-0.13965 0.35807-0.0931 0.71257-0.23275 1.0635-0.41895v0.93457c-0.35449 0.15039-0.71794 0.26497-1.0903 0.34375-0.3724 0.07878-0.75017 0.11816-1.1333 0.11816-0.95964 0-1.7206-0.2793-2.2827-0.83789-0.55859-0.55859-0.83789-1.3141-0.83789-2.2666 0-0.9847 0.26497-1.7653 0.79492-2.3418 0.53353-0.58008 1.2515-0.87012 2.1538-0.87012 0.80925 0 1.4484 0.26139 1.9175 0.78418 0.47266 0.51921 0.70899 1.2264 0.70899 2.1216zm-0.98829-0.29004c-7e-3 -0.54069-0.15931-0.97217-0.45654-1.2944-0.29362-0.32227-0.68392-0.4834-1.1709-0.4834-0.55143 0-0.99365 0.15576-1.3267 0.46729-0.32943 0.31152-0.5192 0.75016-0.56933 1.3159z" color="#000000" color-rendering="auto" dominant-baseline="auto" image-rendering="auto" solid-color="#000000" stop-color="#000000" style="font-feature-settings:normal;font-variant-alternates:normal;font-variant-caps:normal;font-variant-east-asian:normal;font-variant-ligatures:normal;font-variant-numeric:normal;font-variant-position:normal;font-variation-settings:normal;inline-size:0;isolation:auto;mix-blend-mode:normal;shape-margin:0;shape-padding:0;text-decoration-color:#000000;text-decoration-line:none;text-decoration-style:solid;text-indent:0;text-orientation:mixed;text-transform:none;white-space:normal"/>
   <path d="m142.21 8.4531v0.93457c-0.2793-0.14323-0.56934-0.25065-0.87012-0.32227-0.30078-0.071615-0.6123-0.10742-0.93457-0.10742-0.49056 0-0.85938 0.075195-1.1064 0.22559-0.24349 0.15039-0.36523 0.37598-0.36523 0.67676 0 0.22917 0.0877 0.40999 0.26318 0.54248 0.17546 0.12891 0.52816 0.25244 1.0581 0.37061l0.33838 0.07519c0.70182 0.15039 1.1995 0.36344 1.4932 0.63916 0.2972 0.27214 0.4458 0.65348 0.4458 1.144 0 0.55859-0.222 1.0008-0.66601 1.3267-0.44043 0.32585-1.0474 0.48877-1.8208 0.48877-0.32227 0-0.65886-0.03223-1.0098-0.09668-0.34733-0.06087-0.71436-0.15397-1.1011-0.2793v-1.0205c0.36523 0.18978 0.7251 0.33301 1.0796 0.42969 0.35449 0.0931 0.7054 0.13965 1.0527 0.13965 0.46549 0 0.82357-0.07878 1.0742-0.23633 0.25065-0.16113 0.37598-0.38672 0.37598-0.67676 0-0.26856-0.0913-0.47445-0.27393-0.61768-0.17903-0.14323-0.5747-0.28109-1.187-0.41357l-0.34375-0.08057c-0.61231-0.12891-1.0545-0.32585-1.3267-0.59082-0.27213-0.26856-0.4082-0.63558-0.4082-1.1011 0-0.56576 0.20052-1.0026 0.60156-1.3105s0.97038-0.46191 1.708-0.46191c0.36523 0 0.70898 0.026855 1.0312 0.080566 0.32226 0.053711 0.61946 0.13428 0.8916 0.2417z" color="#000000" color-rendering="auto" dominant-baseline="auto" image-rendering="auto" solid-color="#000000" stop-color="#000000" style="font-feature-settings:normal;font-variant-alternates:normal;font-variant-caps:normal;font-variant-east-asian:normal;font-variant-ligatures:normal;font-variant-numeric:normal;font-variant-position:normal;font-variation-settings:normal;inline-size:0;isolation:auto;mix-blend-mode:normal;shape-margin:0;shape-padding:0;text-decoration-color:#000000;text-decoration-line:none;text-decoration-style:solid;text-indent:0;text-orientation:mixed;text-transform:none;white-space:normal"/>
   <path d="m145.09 6.5679v1.708h2.0356v0.76807h-2.0356v3.2656c0 0.49056 0.0662 0.80566 0.19873 0.94531 0.13607 0.13965 0.40999 0.20947 0.82178 0.20947h1.0151v0.82715h-1.0151c-0.76269 0-1.2891-0.14144-1.5791-0.42432-0.29004-0.28646-0.43506-0.80566-0.43506-1.5576v-3.2656h-0.7251v-0.76807h0.7251v-1.708z" color="#000000" color-rendering="auto" dominant-baseline="auto" image-rendering="auto" solid-color="#000000" stop-color="#000000" style="font-feature-settings:normal;font-variant-alternates:normal;font-variant-caps:normal;font-variant-east-asian:normal;font-variant-ligatures:normal;font-variant-numeric:normal;font-variant-position:normal;font-variation-settings:normal;inline-size:0;isolation:auto;mix-blend-mode:normal;shape-margin:0;shape-padding:0;text-decoration-color:#000000;text-decoration-line:none;text-decoration-style:solid;text-indent:0;text-orientation:mixed;text-transform:none;white-space:normal"/>
   <path d="m148.42 8.2759h0.98828v6.0156h-0.98828zm0-2.3418h0.98828v1.2515h-0.98828z" color="#000000" color-rendering="auto" dominant-baseline="auto" image-rendering="auto" solid-color="#000000" stop-color="#000000" style="font-feature-settings:normal;font-variant-alternates:normal;font-variant-caps:normal;font-variant-east-asian:normal;font-variant-ligatures:normal;font-variant-numeric:normal;font-variant-position:normal;font-variation-settings:normal;inline-size:0;isolation:auto;mix-blend-mode:normal;shape-margin:0;shape-padding:0;text-decoration-color:#000000;text-decoration-line:none;text-decoration-style:solid;text-indent:0;text-orientation:mixed;text-transform:none;white-space:normal"/>
   <path d="m155.81 8.5068v0.92383c-0.2793-0.15397-0.56039-0.26855-0.84327-0.34375-0.27929-0.078776-0.56217-0.11816-0.84863-0.11816-0.64095 0-1.1387 0.2041-1.4932 0.6123-0.35449 0.40462-0.53174 0.97396-0.53174 1.708 0 0.73405 0.17725 1.3052 0.53174 1.7134 0.35449 0.40462 0.85221 0.60693 1.4932 0.60693 0.28646 0 0.56934-0.0376 0.84863-0.11279 0.28288-0.07878 0.56397-0.19515 0.84327-0.34912v0.91309c-0.27572 0.12891-0.56218 0.22559-0.85938 0.29004-0.29362 0.06445-0.60693 0.09668-0.93994 0.09668-0.90593 0-1.6256-0.28467-2.1592-0.854s-0.80029-1.3374-0.80029-2.3042c0-0.98112 0.26855-1.7528 0.80566-2.3149 0.54069-0.56217 1.2801-0.84326 2.2183-0.84326 0.30437 0 0.60157 0.032227 0.8916 0.09668 0.29004 0.060873 0.57113 0.15397 0.84327 0.2793z" color="#000000" color-rendering="auto" dominant-baseline="auto" image-rendering="auto" solid-color="#000000" stop-color="#000000" style="font-feature-settings:normal;font-variant-alternates:normal;font-variant-caps:normal;font-variant-east-asian:normal;font-variant-ligatures:normal;font-variant-numeric:normal;font-variant-position:normal;font-variation-settings:normal;inline-size:0;isolation:auto;mix-blend-mode:normal;shape-margin:0;shape-padding:0;text-decoration-color:#000000;text-decoration-line:none;text-decoration-style:solid;text-indent:0;text-orientation:mixed;text-transform:none;white-space:normal"/>
  </g>
 </g>
</svg>
